<mxfile host="app.diagrams.net" modified="2021-06-17T07:37:57.306Z" agent="5.0 (Windows NT 10.0; Win64; x64) AppleWebKit/537.36 (KHTML, like Gecko) Chrome/91.0.4472.101 Safari/537.36" etag="IDXq8Nk9yMYjEulgXZoh" version="14.7.9" type="github" pages="2">
  <diagram name="3 Factory Method" id="yo1kNuvH8dFRnXLUA40o">
    <mxGraphModel dx="868" dy="463" grid="1" gridSize="10" guides="1" tooltips="1" connect="1" arrows="1" fold="1" page="1" pageScale="1" pageWidth="850" pageHeight="1100" math="0" shadow="0">
      <root>
        <mxCell id="AaRRUuPXGWxMk3QRpt-g-0" />
        <mxCell id="AaRRUuPXGWxMk3QRpt-g-1" parent="AaRRUuPXGWxMk3QRpt-g-0" />
        <mxCell id="AaRRUuPXGWxMk3QRpt-g-2" value="abstract Class Creador" style="swimlane;fontStyle=1;align=center;verticalAlign=top;childLayout=stackLayout;horizontal=1;startSize=30;horizontalStack=0;resizeParent=1;resizeParentMax=0;resizeLast=0;collapsible=1;marginBottom=0;" parent="AaRRUuPXGWxMk3QRpt-g-1" vertex="1">
          <mxGeometry x="410" y="44" width="160" height="56" as="geometry" />
        </mxCell>
        <mxCell id="AaRRUuPXGWxMk3QRpt-g-3" value="MetodoDeCreacion()" style="text;strokeColor=none;fillColor=none;align=center;verticalAlign=top;spacingLeft=4;spacingRight=4;overflow=hidden;rotatable=0;points=[[0,0.5],[1,0.5]];portConstraint=eastwest;" parent="AaRRUuPXGWxMk3QRpt-g-2" vertex="1">
          <mxGeometry y="30" width="160" height="26" as="geometry" />
        </mxCell>
        <mxCell id="AaRRUuPXGWxMk3QRpt-g-5" value="&lt;h1&gt;&lt;font color=&quot;#1a1a1a&quot;&gt;Factory Method&lt;/font&gt;&lt;/h1&gt;&lt;div&gt;&lt;br&gt;&lt;/div&gt;&lt;div&gt;&lt;font color=&quot;#1a1a1a&quot;&gt;Template Method&amp;nbsp;&lt;/font&gt;&lt;span&gt;&lt;font color=&quot;#1a1a1a&quot;&gt;define una interfaz para crear un objeto, pero&amp;nbsp;&lt;/font&gt;&lt;/span&gt;&lt;span style=&quot;color: rgb(26 , 26 , 26)&quot;&gt;dejan que sean las subclases quienes decidan que clase&amp;nbsp;&lt;/span&gt;&lt;span style=&quot;color: rgb(26 , 26 , 26)&quot;&gt;de objetos instanciar.&amp;nbsp;&lt;/span&gt;&lt;span&gt;&lt;font color=&quot;#1a1a1a&quot;&gt;Las clases delegan la responsabilidad en una&amp;nbsp;&lt;/font&gt;&lt;/span&gt;&lt;span style=&quot;color: rgb(26 , 26 , 26)&quot;&gt;clase auxiliar.&lt;/span&gt;&lt;/div&gt;&lt;div&gt;&lt;span style=&quot;color: rgb(26 , 26 , 26)&quot;&gt;La diferencia entre los creadores concretos es la instancia del producto concreto que se crea.&lt;/span&gt;&lt;/div&gt;&lt;div&gt;&lt;span style=&quot;color: rgb(26 , 26 , 26)&quot;&gt;&lt;br&gt;&lt;/span&gt;&lt;/div&gt;&lt;div&gt;&lt;span style=&quot;color: rgb(26 , 26 , 26)&quot;&gt;Como crear la instancia del profesor esta encapsulado en una clase, desde alli se puede hacer el mantenimiento sin afectar la instanciacion de otros profesores.&lt;/span&gt;&lt;/div&gt;&lt;p&gt;&lt;/p&gt;" style="text;html=1;strokeColor=none;fillColor=none;spacing=5;spacingTop=-20;whiteSpace=wrap;overflow=hidden;rounded=0;align=right;" parent="AaRRUuPXGWxMk3QRpt-g-1" vertex="1">
          <mxGeometry x="80" y="10" width="295" height="230" as="geometry" />
        </mxCell>
        <mxCell id="AaRRUuPXGWxMk3QRpt-g-6" value="ProductoConcreto" style="swimlane;fontStyle=1;align=center;verticalAlign=top;childLayout=stackLayout;horizontal=1;startSize=46;horizontalStack=0;resizeParent=1;resizeParentMax=0;resizeLast=0;collapsible=1;marginBottom=0;" parent="AaRRUuPXGWxMk3QRpt-g-1" vertex="1">
          <mxGeometry x="650" y="165" width="160" height="26" as="geometry" />
        </mxCell>
        <mxCell id="AaRRUuPXGWxMk3QRpt-g-9" value="" style="endArrow=none;html=1;endSize=8;entryX=1;entryY=0;entryDx=0;entryDy=0;exitX=1;exitY=1;exitDx=0;exitDy=0;" parent="AaRRUuPXGWxMk3QRpt-g-1" source="AaRRUuPXGWxMk3QRpt-g-5" target="AaRRUuPXGWxMk3QRpt-g-5" edge="1">
          <mxGeometry width="50" height="50" relative="1" as="geometry">
            <mxPoint x="470" y="230" as="sourcePoint" />
            <mxPoint x="520" y="180" as="targetPoint" />
          </mxGeometry>
        </mxCell>
        <mxCell id="AaRRUuPXGWxMk3QRpt-g-10" value="CreadorConcreto" style="swimlane;fontStyle=1;align=center;verticalAlign=top;childLayout=stackLayout;horizontal=1;startSize=30;horizontalStack=0;resizeParent=1;resizeParentMax=0;resizeLast=0;collapsible=1;marginBottom=0;" parent="AaRRUuPXGWxMk3QRpt-g-1" vertex="1">
          <mxGeometry x="410" y="150" width="160" height="56" as="geometry" />
        </mxCell>
        <mxCell id="AaRRUuPXGWxMk3QRpt-g-11" value="MetodoDeCreacion()" style="text;strokeColor=none;fillColor=none;align=center;verticalAlign=top;spacingLeft=4;spacingRight=4;overflow=hidden;rotatable=0;points=[[0,0.5],[1,0.5]];portConstraint=eastwest;" parent="AaRRUuPXGWxMk3QRpt-g-10" vertex="1">
          <mxGeometry y="30" width="160" height="26" as="geometry" />
        </mxCell>
        <mxCell id="AaRRUuPXGWxMk3QRpt-g-12" value="" style="endArrow=block;html=1;endFill=1;endSize=8;edgeStyle=orthogonalEdgeStyle;rounded=0;" parent="AaRRUuPXGWxMk3QRpt-g-1" source="AaRRUuPXGWxMk3QRpt-g-6" target="l-YtCy-cWZxPGC9DYye8-1" edge="1">
          <mxGeometry width="50" height="50" relative="1" as="geometry">
            <mxPoint x="255" y="193" as="sourcePoint" />
            <mxPoint x="305" y="143" as="targetPoint" />
          </mxGeometry>
        </mxCell>
        <mxCell id="AaRRUuPXGWxMk3QRpt-g-25" value="CLIENTE" style="rounded=1;whiteSpace=wrap;html=1;align=center;" parent="AaRRUuPXGWxMk3QRpt-g-1" vertex="1">
          <mxGeometry x="20" y="271.5" width="100" height="48.5" as="geometry" />
        </mxCell>
        <mxCell id="l-YtCy-cWZxPGC9DYye8-0" value="" style="endArrow=classic;html=1;dashed=1;" parent="AaRRUuPXGWxMk3QRpt-g-1" source="AaRRUuPXGWxMk3QRpt-g-10" target="AaRRUuPXGWxMk3QRpt-g-6" edge="1">
          <mxGeometry width="50" height="50" relative="1" as="geometry">
            <mxPoint x="380" y="126" as="sourcePoint" />
            <mxPoint x="430" y="76" as="targetPoint" />
          </mxGeometry>
        </mxCell>
        <mxCell id="l-YtCy-cWZxPGC9DYye8-1" value="Producto" style="swimlane;fontStyle=1;align=center;verticalAlign=top;childLayout=stackLayout;horizontal=1;startSize=46;horizontalStack=0;resizeParent=1;resizeParentMax=0;resizeLast=0;collapsible=1;marginBottom=0;" parent="AaRRUuPXGWxMk3QRpt-g-1" vertex="1">
          <mxGeometry x="650" y="59" width="160" height="26" as="geometry" />
        </mxCell>
        <mxCell id="l-YtCy-cWZxPGC9DYye8-3" value="" style="endArrow=block;html=1;endFill=1;endSize=8;edgeStyle=orthogonalEdgeStyle;rounded=0;" parent="AaRRUuPXGWxMk3QRpt-g-1" source="AaRRUuPXGWxMk3QRpt-g-10" target="AaRRUuPXGWxMk3QRpt-g-2" edge="1">
          <mxGeometry width="50" height="50" relative="1" as="geometry">
            <mxPoint x="255" y="193" as="sourcePoint" />
            <mxPoint x="305" y="143" as="targetPoint" />
          </mxGeometry>
        </mxCell>
        <mxCell id="l-YtCy-cWZxPGC9DYye8-4" value="abstract Class &#xa;FabricaDeProfesores" style="swimlane;fontStyle=1;align=center;verticalAlign=top;childLayout=stackLayout;horizontal=1;startSize=40;horizontalStack=0;resizeParent=1;resizeParentMax=0;resizeLast=0;collapsible=1;marginBottom=0;" parent="AaRRUuPXGWxMk3QRpt-g-1" vertex="1">
          <mxGeometry x="160" y="271.5" width="310" height="100" as="geometry" />
        </mxCell>
        <mxCell id="l-YtCy-cWZxPGC9DYye8-5" value="static CrearProfesor(int cual) : fabrica.CrearProfesor()&#xa;abstract Profesor crearProfesor()" style="text;strokeColor=none;fillColor=none;align=center;verticalAlign=top;spacingLeft=4;spacingRight=4;overflow=hidden;rotatable=0;points=[[0,0.5],[1,0.5]];portConstraint=eastwest;" parent="l-YtCy-cWZxPGC9DYye8-4" vertex="1">
          <mxGeometry y="40" width="310" height="60" as="geometry" />
        </mxCell>
        <mxCell id="l-YtCy-cWZxPGC9DYye8-6" value="ProfesorLocal" style="swimlane;fontStyle=1;align=center;verticalAlign=top;childLayout=stackLayout;horizontal=1;startSize=46;horizontalStack=0;resizeParent=1;resizeParentMax=0;resizeLast=0;collapsible=1;marginBottom=0;" parent="AaRRUuPXGWxMk3QRpt-g-1" vertex="1">
          <mxGeometry x="490" y="422.5" width="160" height="26" as="geometry" />
        </mxCell>
        <mxCell id="l-YtCy-cWZxPGC9DYye8-7" value="FabricaDeProfesorVisitante" style="swimlane;fontStyle=1;align=center;verticalAlign=top;childLayout=stackLayout;horizontal=1;startSize=30;horizontalStack=0;resizeParent=1;resizeParentMax=0;resizeLast=0;collapsible=1;marginBottom=0;" parent="AaRRUuPXGWxMk3QRpt-g-1" vertex="1">
          <mxGeometry x="360" y="581.5" width="160" height="70" as="geometry" />
        </mxCell>
        <mxCell id="l-YtCy-cWZxPGC9DYye8-27" value="CrearProfesor()&#xa;new ProfesorVisitante" style="text;strokeColor=none;fillColor=none;align=center;verticalAlign=top;spacingLeft=4;spacingRight=4;overflow=hidden;rotatable=0;points=[[0,0.5],[1,0.5]];portConstraint=eastwest;" parent="l-YtCy-cWZxPGC9DYye8-7" vertex="1">
          <mxGeometry y="30" width="160" height="40" as="geometry" />
        </mxCell>
        <mxCell id="l-YtCy-cWZxPGC9DYye8-9" value="" style="endArrow=block;html=1;endFill=1;endSize=8;edgeStyle=orthogonalEdgeStyle;rounded=0;" parent="AaRRUuPXGWxMk3QRpt-g-1" source="l-YtCy-cWZxPGC9DYye8-6" target="l-YtCy-cWZxPGC9DYye8-11" edge="1">
          <mxGeometry width="50" height="50" relative="1" as="geometry">
            <mxPoint x="287.5" y="450.5" as="sourcePoint" />
            <mxPoint x="550" y="341.5" as="targetPoint" />
            <Array as="points">
              <mxPoint x="630" y="421.5" />
              <mxPoint x="630" y="421.5" />
            </Array>
          </mxGeometry>
        </mxCell>
        <mxCell id="l-YtCy-cWZxPGC9DYye8-10" value="" style="endArrow=classic;html=1;dashed=1;" parent="AaRRUuPXGWxMk3QRpt-g-1" source="l-YtCy-cWZxPGC9DYye8-16" target="l-YtCy-cWZxPGC9DYye8-6" edge="1">
          <mxGeometry width="50" height="50" relative="1" as="geometry">
            <mxPoint x="412.5" y="383.5" as="sourcePoint" />
            <mxPoint x="462.5" y="333.5" as="targetPoint" />
          </mxGeometry>
        </mxCell>
        <mxCell id="l-YtCy-cWZxPGC9DYye8-11" value="Profesor" style="swimlane;fontStyle=1;align=center;verticalAlign=top;childLayout=stackLayout;horizontal=1;startSize=70;horizontalStack=0;resizeParent=1;resizeParentMax=0;resizeLast=0;collapsible=1;marginBottom=0;" parent="AaRRUuPXGWxMk3QRpt-g-1" vertex="1">
          <mxGeometry x="590" y="311.5" width="160" height="31" as="geometry" />
        </mxCell>
        <mxCell id="l-YtCy-cWZxPGC9DYye8-12" value="" style="endArrow=block;html=1;endFill=1;endSize=8;edgeStyle=orthogonalEdgeStyle;rounded=0;" parent="AaRRUuPXGWxMk3QRpt-g-1" source="l-YtCy-cWZxPGC9DYye8-7" target="l-YtCy-cWZxPGC9DYye8-4" edge="1">
          <mxGeometry width="50" height="50" relative="1" as="geometry">
            <mxPoint x="287.5" y="450.5" as="sourcePoint" />
            <mxPoint x="337.5" y="400.5" as="targetPoint" />
            <Array as="points">
              <mxPoint x="210" y="609.5" />
            </Array>
          </mxGeometry>
        </mxCell>
        <mxCell id="l-YtCy-cWZxPGC9DYye8-13" value="FabricaDeProfesorSuplente" style="swimlane;fontStyle=1;align=center;verticalAlign=top;childLayout=stackLayout;horizontal=1;startSize=30;horizontalStack=0;resizeParent=1;resizeParentMax=0;resizeLast=0;collapsible=1;marginBottom=0;" parent="AaRRUuPXGWxMk3QRpt-g-1" vertex="1">
          <mxGeometry x="315" y="491.5" width="160" height="70" as="geometry" />
        </mxCell>
        <mxCell id="l-YtCy-cWZxPGC9DYye8-26" value="CrearProfesor()&#xa;new ProfesorSuplente" style="text;strokeColor=none;fillColor=none;align=center;verticalAlign=top;spacingLeft=4;spacingRight=4;overflow=hidden;rotatable=0;points=[[0,0.5],[1,0.5]];portConstraint=eastwest;" parent="l-YtCy-cWZxPGC9DYye8-13" vertex="1">
          <mxGeometry y="30" width="160" height="40" as="geometry" />
        </mxCell>
        <mxCell id="l-YtCy-cWZxPGC9DYye8-15" value="" style="endArrow=block;html=1;endFill=1;endSize=8;edgeStyle=orthogonalEdgeStyle;rounded=0;" parent="AaRRUuPXGWxMk3QRpt-g-1" source="l-YtCy-cWZxPGC9DYye8-13" target="l-YtCy-cWZxPGC9DYye8-4" edge="1">
          <mxGeometry width="50" height="50" relative="1" as="geometry">
            <mxPoint x="287.5" y="450.5" as="sourcePoint" />
            <mxPoint x="337.5" y="400.5" as="targetPoint" />
            <Array as="points">
              <mxPoint x="240" y="523.5" />
            </Array>
          </mxGeometry>
        </mxCell>
        <mxCell id="l-YtCy-cWZxPGC9DYye8-16" value="FabricaDeProfesorLocal" style="swimlane;fontStyle=1;align=center;verticalAlign=top;childLayout=stackLayout;horizontal=1;startSize=30;horizontalStack=0;resizeParent=1;resizeParentMax=0;resizeLast=0;collapsible=1;marginBottom=0;" parent="AaRRUuPXGWxMk3QRpt-g-1" vertex="1">
          <mxGeometry x="280" y="407.5" width="160" height="70" as="geometry" />
        </mxCell>
        <mxCell id="l-YtCy-cWZxPGC9DYye8-17" value="CrearProfesor()&#xa;new ProfesorLocal" style="text;strokeColor=none;fillColor=none;align=center;verticalAlign=top;spacingLeft=4;spacingRight=4;overflow=hidden;rotatable=0;points=[[0,0.5],[1,0.5]];portConstraint=eastwest;" parent="l-YtCy-cWZxPGC9DYye8-16" vertex="1">
          <mxGeometry y="30" width="160" height="40" as="geometry" />
        </mxCell>
        <mxCell id="l-YtCy-cWZxPGC9DYye8-18" value="" style="endArrow=block;html=1;endFill=1;endSize=8;edgeStyle=orthogonalEdgeStyle;rounded=0;" parent="AaRRUuPXGWxMk3QRpt-g-1" source="l-YtCy-cWZxPGC9DYye8-16" target="l-YtCy-cWZxPGC9DYye8-4" edge="1">
          <mxGeometry width="50" height="50" relative="1" as="geometry">
            <mxPoint x="287.5" y="450.5" as="sourcePoint" />
            <mxPoint x="337.5" y="400.5" as="targetPoint" />
            <Array as="points">
              <mxPoint x="270" y="435.5" />
            </Array>
          </mxGeometry>
        </mxCell>
        <mxCell id="l-YtCy-cWZxPGC9DYye8-19" value="ProfesorSuplente" style="swimlane;fontStyle=1;align=center;verticalAlign=top;childLayout=stackLayout;horizontal=1;startSize=46;horizontalStack=0;resizeParent=1;resizeParentMax=0;resizeLast=0;collapsible=1;marginBottom=0;" parent="AaRRUuPXGWxMk3QRpt-g-1" vertex="1">
          <mxGeometry x="529" y="506.5" width="160" height="26" as="geometry" />
        </mxCell>
        <mxCell id="l-YtCy-cWZxPGC9DYye8-20" value="ProfesorVisitante" style="swimlane;fontStyle=1;align=center;verticalAlign=top;childLayout=stackLayout;horizontal=1;startSize=46;horizontalStack=0;resizeParent=1;resizeParentMax=0;resizeLast=0;collapsible=1;marginBottom=0;" parent="AaRRUuPXGWxMk3QRpt-g-1" vertex="1">
          <mxGeometry x="570" y="596.5" width="160" height="26" as="geometry" />
        </mxCell>
        <mxCell id="l-YtCy-cWZxPGC9DYye8-21" value="" style="endArrow=classic;html=1;dashed=1;" parent="AaRRUuPXGWxMk3QRpt-g-1" source="l-YtCy-cWZxPGC9DYye8-13" target="l-YtCy-cWZxPGC9DYye8-19" edge="1">
          <mxGeometry width="50" height="50" relative="1" as="geometry">
            <mxPoint x="412.5" y="383.5" as="sourcePoint" />
            <mxPoint x="462.5" y="333.5" as="targetPoint" />
          </mxGeometry>
        </mxCell>
        <mxCell id="l-YtCy-cWZxPGC9DYye8-22" value="" style="endArrow=classic;html=1;dashed=1;" parent="AaRRUuPXGWxMk3QRpt-g-1" source="l-YtCy-cWZxPGC9DYye8-7" target="l-YtCy-cWZxPGC9DYye8-20" edge="1">
          <mxGeometry width="50" height="50" relative="1" as="geometry">
            <mxPoint x="412.5" y="383.5" as="sourcePoint" />
            <mxPoint x="462.5" y="333.5" as="targetPoint" />
          </mxGeometry>
        </mxCell>
        <mxCell id="l-YtCy-cWZxPGC9DYye8-24" value="" style="endArrow=block;html=1;endFill=1;endSize=8;edgeStyle=orthogonalEdgeStyle;rounded=0;exitX=0.5;exitY=0;exitDx=0;exitDy=0;" parent="AaRRUuPXGWxMk3QRpt-g-1" source="l-YtCy-cWZxPGC9DYye8-19" target="l-YtCy-cWZxPGC9DYye8-11" edge="1">
          <mxGeometry width="50" height="50" relative="1" as="geometry">
            <mxPoint x="287.5" y="450.5" as="sourcePoint" />
            <mxPoint x="337.5" y="400.5" as="targetPoint" />
            <Array as="points">
              <mxPoint x="670" y="506.5" />
            </Array>
          </mxGeometry>
        </mxCell>
        <mxCell id="l-YtCy-cWZxPGC9DYye8-25" value="" style="endArrow=block;html=1;endFill=1;endSize=8;edgeStyle=orthogonalEdgeStyle;rounded=0;exitX=0.5;exitY=0;exitDx=0;exitDy=0;" parent="AaRRUuPXGWxMk3QRpt-g-1" source="l-YtCy-cWZxPGC9DYye8-20" target="l-YtCy-cWZxPGC9DYye8-11" edge="1">
          <mxGeometry width="50" height="50" relative="1" as="geometry">
            <mxPoint x="287.5" y="450.5" as="sourcePoint" />
            <mxPoint x="840" y="471.5" as="targetPoint" />
            <Array as="points">
              <mxPoint x="710" y="596.5" />
            </Array>
          </mxGeometry>
        </mxCell>
        <mxCell id="RKG4aWZJy6zWeopK65yn-0" value="abstract Class &#xa;FabricaDeComparables" style="swimlane;fontStyle=1;align=center;verticalAlign=top;childLayout=stackLayout;horizontal=1;startSize=40;horizontalStack=0;resizeParent=1;resizeParentMax=0;resizeLast=0;collapsible=1;marginBottom=0;fillColor=#fff2cc;strokeColor=#d6b656;" parent="AaRRUuPXGWxMk3QRpt-g-1" vertex="1">
          <mxGeometry x="80" y="680" width="340" height="200" as="geometry" />
        </mxCell>
        <mxCell id="qicBE32RqtO6efbUKPAv-0" value="const opcion;" style="text;strokeColor=none;fillColor=none;align=center;verticalAlign=top;spacingLeft=4;spacingRight=4;overflow=hidden;rotatable=0;points=[[0,0.5],[1,0.5]];portConstraint=eastwest;" vertex="1" parent="RKG4aWZJy6zWeopK65yn-0">
          <mxGeometry y="40" width="340" height="30" as="geometry" />
        </mxCell>
        <mxCell id="RKG4aWZJy6zWeopK65yn-1" value="static Comparable CrearAleatorio(opcion) {&#xa;    FabricaDeComparable fabrica= null;&#xa;    switch(opcion)&#xa;        case x: fabrica = new FabricaDelAlumno;&#xa;    return fabrica.crearComparableAleatorio();&#xa;}" style="text;strokeColor=none;fillColor=none;align=left;verticalAlign=top;spacingLeft=4;spacingRight=4;overflow=hidden;rotatable=0;points=[[0,0.5],[1,0.5]];portConstraint=eastwest;" parent="RKG4aWZJy6zWeopK65yn-0" vertex="1">
          <mxGeometry y="70" width="340" height="100" as="geometry" />
        </mxCell>
        <mxCell id="qicBE32RqtO6efbUKPAv-1" value="public abstract Comparable crearComparableAleatorio(op);" style="text;strokeColor=none;fillColor=none;align=center;verticalAlign=top;spacingLeft=4;spacingRight=4;overflow=hidden;rotatable=0;points=[[0,0.5],[1,0.5]];portConstraint=eastwest;" vertex="1" parent="RKG4aWZJy6zWeopK65yn-0">
          <mxGeometry y="170" width="340" height="30" as="geometry" />
        </mxCell>
        <mxCell id="RKG4aWZJy6zWeopK65yn-2" value="Numero" style="swimlane;fontStyle=1;align=center;verticalAlign=top;childLayout=stackLayout;horizontal=1;startSize=46;horizontalStack=0;resizeParent=1;resizeParentMax=0;resizeLast=0;collapsible=1;marginBottom=0;" parent="AaRRUuPXGWxMk3QRpt-g-1" vertex="1">
          <mxGeometry x="480" y="919" width="80" height="26" as="geometry" />
        </mxCell>
        <mxCell id="RKG4aWZJy6zWeopK65yn-5" value="" style="endArrow=block;html=1;endFill=1;endSize=8;edgeStyle=orthogonalEdgeStyle;rounded=0;" parent="AaRRUuPXGWxMk3QRpt-g-1" source="RKG4aWZJy6zWeopK65yn-2" target="RKG4aWZJy6zWeopK65yn-7" edge="1">
          <mxGeometry width="50" height="50" relative="1" as="geometry">
            <mxPoint x="257.5" y="969" as="sourcePoint" />
            <mxPoint x="520" y="860" as="targetPoint" />
            <Array as="points">
              <mxPoint x="580" y="932" />
            </Array>
          </mxGeometry>
        </mxCell>
        <mxCell id="RKG4aWZJy6zWeopK65yn-6" value="" style="endArrow=classic;html=1;dashed=1;edgeStyle=orthogonalEdgeStyle;rounded=0;" parent="AaRRUuPXGWxMk3QRpt-g-1" source="RKG4aWZJy6zWeopK65yn-12" target="RKG4aWZJy6zWeopK65yn-2" edge="1">
          <mxGeometry width="50" height="50" relative="1" as="geometry">
            <mxPoint x="382.5" y="902" as="sourcePoint" />
            <mxPoint x="432.5" y="852" as="targetPoint" />
            <Array as="points">
              <mxPoint x="430" y="932" />
              <mxPoint x="430" y="932" />
            </Array>
          </mxGeometry>
        </mxCell>
        <mxCell id="RKG4aWZJy6zWeopK65yn-7" value="Comparables" style="swimlane;fontStyle=1;align=center;verticalAlign=top;childLayout=stackLayout;horizontal=1;startSize=70;horizontalStack=0;resizeParent=1;resizeParentMax=0;resizeLast=0;collapsible=1;marginBottom=0;" parent="AaRRUuPXGWxMk3QRpt-g-1" vertex="1">
          <mxGeometry x="480" y="830" width="110" height="31" as="geometry" />
        </mxCell>
        <mxCell id="RKG4aWZJy6zWeopK65yn-9" value="FabricaDeAlumnos" style="swimlane;fontStyle=1;align=center;verticalAlign=top;childLayout=stackLayout;horizontal=1;startSize=30;horizontalStack=0;resizeParent=1;resizeParentMax=0;resizeLast=0;collapsible=1;marginBottom=0;fillColor=#fff2cc;strokeColor=#d6b656;" parent="AaRRUuPXGWxMk3QRpt-g-1" vertex="1">
          <mxGeometry x="80" y="919" width="160" height="70" as="geometry" />
        </mxCell>
        <mxCell id="RKG4aWZJy6zWeopK65yn-21" value="CrearComparable() : &#xa;new Alumno" style="text;strokeColor=none;fillColor=none;align=center;verticalAlign=top;spacingLeft=4;spacingRight=4;overflow=hidden;rotatable=0;points=[[0,0.5],[1,0.5]];portConstraint=eastwest;" parent="RKG4aWZJy6zWeopK65yn-9" vertex="1">
          <mxGeometry y="30" width="160" height="40" as="geometry" />
        </mxCell>
        <mxCell id="RKG4aWZJy6zWeopK65yn-11" value="" style="endArrow=block;html=1;endFill=1;endSize=8;edgeStyle=orthogonalEdgeStyle;rounded=0;" parent="AaRRUuPXGWxMk3QRpt-g-1" source="RKG4aWZJy6zWeopK65yn-9" target="RKG4aWZJy6zWeopK65yn-0" edge="1">
          <mxGeometry width="50" height="50" relative="1" as="geometry">
            <mxPoint x="257.5" y="969" as="sourcePoint" />
            <mxPoint x="307.5" y="919" as="targetPoint" />
            <Array as="points">
              <mxPoint x="160" y="900" />
              <mxPoint x="250" y="900" />
            </Array>
          </mxGeometry>
        </mxCell>
        <mxCell id="RKG4aWZJy6zWeopK65yn-12" value="FabricaDeNumeros" style="swimlane;fontStyle=1;align=center;verticalAlign=top;childLayout=stackLayout;horizontal=1;startSize=30;horizontalStack=0;resizeParent=1;resizeParentMax=0;resizeLast=0;collapsible=1;marginBottom=0;fillColor=#fff2cc;strokeColor=#d6b656;" parent="AaRRUuPXGWxMk3QRpt-g-1" vertex="1">
          <mxGeometry x="260" y="919" width="160" height="70" as="geometry" />
        </mxCell>
        <mxCell id="RKG4aWZJy6zWeopK65yn-13" value="CrearComparable() : &#xa;new Numero" style="text;strokeColor=none;fillColor=none;align=center;verticalAlign=top;spacingLeft=4;spacingRight=4;overflow=hidden;rotatable=0;points=[[0,0.5],[1,0.5]];portConstraint=eastwest;" parent="RKG4aWZJy6zWeopK65yn-12" vertex="1">
          <mxGeometry y="30" width="160" height="40" as="geometry" />
        </mxCell>
        <mxCell id="RKG4aWZJy6zWeopK65yn-14" value="" style="endArrow=block;html=1;endFill=1;endSize=8;edgeStyle=orthogonalEdgeStyle;rounded=0;" parent="AaRRUuPXGWxMk3QRpt-g-1" source="RKG4aWZJy6zWeopK65yn-12" target="RKG4aWZJy6zWeopK65yn-0" edge="1">
          <mxGeometry width="50" height="50" relative="1" as="geometry">
            <mxPoint x="257.5" y="969" as="sourcePoint" />
            <mxPoint x="307.5" y="919" as="targetPoint" />
            <Array as="points">
              <mxPoint x="340" y="900" />
              <mxPoint x="250" y="900" />
            </Array>
          </mxGeometry>
        </mxCell>
        <mxCell id="RKG4aWZJy6zWeopK65yn-15" value="Alumno" style="swimlane;fontStyle=1;align=center;verticalAlign=top;childLayout=stackLayout;horizontal=1;startSize=46;horizontalStack=0;resizeParent=1;resizeParentMax=0;resizeLast=0;collapsible=1;marginBottom=0;" parent="AaRRUuPXGWxMk3QRpt-g-1" vertex="1">
          <mxGeometry x="480" y="989" width="80" height="26" as="geometry" />
        </mxCell>
        <mxCell id="RKG4aWZJy6zWeopK65yn-17" value="" style="endArrow=classic;html=1;dashed=1;edgeStyle=orthogonalEdgeStyle;rounded=0;" parent="AaRRUuPXGWxMk3QRpt-g-1" source="RKG4aWZJy6zWeopK65yn-9" target="RKG4aWZJy6zWeopK65yn-15" edge="1">
          <mxGeometry width="50" height="50" relative="1" as="geometry">
            <mxPoint x="382.5" y="902" as="sourcePoint" />
            <mxPoint x="432.5" y="852" as="targetPoint" />
            <Array as="points">
              <mxPoint x="160" y="1002" />
            </Array>
          </mxGeometry>
        </mxCell>
        <mxCell id="RKG4aWZJy6zWeopK65yn-19" value="" style="endArrow=block;html=1;endFill=1;endSize=8;edgeStyle=orthogonalEdgeStyle;rounded=0;" parent="AaRRUuPXGWxMk3QRpt-g-1" source="RKG4aWZJy6zWeopK65yn-15" target="RKG4aWZJy6zWeopK65yn-7" edge="1">
          <mxGeometry width="50" height="50" relative="1" as="geometry">
            <mxPoint x="257.5" y="969" as="sourcePoint" />
            <mxPoint x="307.5" y="919" as="targetPoint" />
            <Array as="points">
              <mxPoint x="580" y="1002" />
            </Array>
          </mxGeometry>
        </mxCell>
      </root>
    </mxGraphModel>
  </diagram>
  <diagram id="Aj2XoQUoZmyuWujq1AzN" name="3 Observer">
    <mxGraphModel dx="868" dy="520" grid="1" gridSize="10" guides="1" tooltips="1" connect="1" arrows="1" fold="1" page="1" pageScale="1" pageWidth="850" pageHeight="1100" math="0" shadow="0">
      <root>
        <mxCell id="QsLPCnkqtUDwlWqzrG-L-0" />
        <mxCell id="QsLPCnkqtUDwlWqzrG-L-1" parent="QsLPCnkqtUDwlWqzrG-L-0" />
        <mxCell id="QsLPCnkqtUDwlWqzrG-L-2" value="Sujeto" style="swimlane;fontStyle=1;align=center;verticalAlign=top;childLayout=stackLayout;horizontal=1;startSize=30;horizontalStack=0;resizeParent=1;resizeParentMax=0;resizeLast=0;collapsible=1;marginBottom=0;" vertex="1" parent="QsLPCnkqtUDwlWqzrG-L-1">
          <mxGeometry x="410" y="10" width="160" height="108" as="geometry" />
        </mxCell>
        <mxCell id="QsLPCnkqtUDwlWqzrG-L-3" value="Agregar()" style="text;strokeColor=none;fillColor=none;align=center;verticalAlign=top;spacingLeft=4;spacingRight=4;overflow=hidden;rotatable=0;points=[[0,0.5],[1,0.5]];portConstraint=eastwest;" vertex="1" parent="QsLPCnkqtUDwlWqzrG-L-2">
          <mxGeometry y="30" width="160" height="26" as="geometry" />
        </mxCell>
        <mxCell id="QsLPCnkqtUDwlWqzrG-L-4" value="Quitar()" style="text;strokeColor=none;fillColor=none;align=center;verticalAlign=top;spacingLeft=4;spacingRight=4;overflow=hidden;rotatable=0;points=[[0,0.5],[1,0.5]];portConstraint=eastwest;" vertex="1" parent="QsLPCnkqtUDwlWqzrG-L-2">
          <mxGeometry y="56" width="160" height="26" as="geometry" />
        </mxCell>
        <mxCell id="QsLPCnkqtUDwlWqzrG-L-5" value="Notificar()" style="text;strokeColor=none;fillColor=none;align=center;verticalAlign=top;spacingLeft=4;spacingRight=4;overflow=hidden;rotatable=0;points=[[0,0.5],[1,0.5]];portConstraint=eastwest;" vertex="1" parent="QsLPCnkqtUDwlWqzrG-L-2">
          <mxGeometry y="82" width="160" height="26" as="geometry" />
        </mxCell>
        <mxCell id="QsLPCnkqtUDwlWqzrG-L-6" value="&lt;h1&gt;&lt;font color=&quot;#1a1a1a&quot;&gt;Observer&lt;/font&gt;&lt;/h1&gt;&lt;div&gt;Define una dependencia de uno a muchos &lt;br&gt;entre objetos, de forma que cuando un objeto cambie de&amp;nbsp;estado se notifique y se actualicen automáticamente todos los objetos que dependan de él&lt;br&gt;&lt;/div&gt;&lt;p&gt;&lt;/p&gt;" style="text;html=1;strokeColor=none;fillColor=none;spacing=5;spacingTop=-20;whiteSpace=wrap;overflow=hidden;rounded=0;align=right;" vertex="1" parent="QsLPCnkqtUDwlWqzrG-L-1">
          <mxGeometry x="80" y="10" width="295" height="230" as="geometry" />
        </mxCell>
        <mxCell id="QsLPCnkqtUDwlWqzrG-L-7" value="ProductoConcreto" style="swimlane;fontStyle=1;align=center;verticalAlign=top;childLayout=stackLayout;horizontal=1;startSize=46;horizontalStack=0;resizeParent=1;resizeParentMax=0;resizeLast=0;collapsible=1;marginBottom=0;" vertex="1" parent="QsLPCnkqtUDwlWqzrG-L-1">
          <mxGeometry x="650" y="152" width="160" height="26" as="geometry" />
        </mxCell>
        <mxCell id="QsLPCnkqtUDwlWqzrG-L-8" value="" style="endArrow=none;html=1;endSize=8;entryX=1;entryY=0;entryDx=0;entryDy=0;exitX=1;exitY=1;exitDx=0;exitDy=0;" edge="1" parent="QsLPCnkqtUDwlWqzrG-L-1" source="QsLPCnkqtUDwlWqzrG-L-6" target="QsLPCnkqtUDwlWqzrG-L-6">
          <mxGeometry width="50" height="50" relative="1" as="geometry">
            <mxPoint x="470" y="230" as="sourcePoint" />
            <mxPoint x="520" y="180" as="targetPoint" />
          </mxGeometry>
        </mxCell>
        <mxCell id="QsLPCnkqtUDwlWqzrG-L-9" value="SujetoConcreto" style="swimlane;fontStyle=1;align=center;verticalAlign=top;childLayout=stackLayout;horizontal=1;startSize=56;horizontalStack=0;resizeParent=1;resizeParentMax=0;resizeLast=0;collapsible=1;marginBottom=0;" vertex="1" parent="QsLPCnkqtUDwlWqzrG-L-1">
          <mxGeometry x="410" y="150" width="160" height="30" as="geometry" />
        </mxCell>
        <mxCell id="QsLPCnkqtUDwlWqzrG-L-10" value="" style="endArrow=block;html=1;endFill=1;endSize=8;edgeStyle=orthogonalEdgeStyle;rounded=0;" edge="1" parent="QsLPCnkqtUDwlWqzrG-L-1" source="QsLPCnkqtUDwlWqzrG-L-7" target="QsLPCnkqtUDwlWqzrG-L-13">
          <mxGeometry width="50" height="50" relative="1" as="geometry">
            <mxPoint x="255" y="193" as="sourcePoint" />
            <mxPoint x="305" y="143" as="targetPoint" />
          </mxGeometry>
        </mxCell>
        <mxCell id="QsLPCnkqtUDwlWqzrG-L-11" value="CLIENTE" style="rounded=1;whiteSpace=wrap;html=1;align=center;" vertex="1" parent="QsLPCnkqtUDwlWqzrG-L-1">
          <mxGeometry x="20" y="271.5" width="100" height="48.5" as="geometry" />
        </mxCell>
        <mxCell id="QsLPCnkqtUDwlWqzrG-L-12" value="" style="endArrow=none;html=1;dashed=1;startArrow=classic;startFill=1;endFill=0;" edge="1" parent="QsLPCnkqtUDwlWqzrG-L-1" source="QsLPCnkqtUDwlWqzrG-L-9" target="QsLPCnkqtUDwlWqzrG-L-7">
          <mxGeometry width="50" height="50" relative="1" as="geometry">
            <mxPoint x="380" y="126" as="sourcePoint" />
            <mxPoint x="430" y="76" as="targetPoint" />
          </mxGeometry>
        </mxCell>
        <mxCell id="QsLPCnkqtUDwlWqzrG-L-13" value="Observardor" style="swimlane;fontStyle=1;align=center;verticalAlign=top;childLayout=stackLayout;horizontal=1;startSize=31;horizontalStack=0;resizeParent=1;resizeParentMax=0;resizeLast=0;collapsible=1;marginBottom=0;" vertex="1" parent="QsLPCnkqtUDwlWqzrG-L-1">
          <mxGeometry x="650" y="35.5" width="160" height="57" as="geometry" />
        </mxCell>
        <mxCell id="QsLPCnkqtUDwlWqzrG-L-14" value="Actualizar()" style="text;strokeColor=none;fillColor=none;align=center;verticalAlign=top;spacingLeft=4;spacingRight=4;overflow=hidden;rotatable=0;points=[[0,0.5],[1,0.5]];portConstraint=eastwest;" vertex="1" parent="QsLPCnkqtUDwlWqzrG-L-13">
          <mxGeometry y="31" width="160" height="26" as="geometry" />
        </mxCell>
        <mxCell id="QsLPCnkqtUDwlWqzrG-L-15" value="" style="endArrow=block;html=1;endFill=1;endSize=8;edgeStyle=orthogonalEdgeStyle;rounded=0;" edge="1" parent="QsLPCnkqtUDwlWqzrG-L-1" source="QsLPCnkqtUDwlWqzrG-L-9" target="QsLPCnkqtUDwlWqzrG-L-2">
          <mxGeometry width="50" height="50" relative="1" as="geometry">
            <mxPoint x="255" y="193" as="sourcePoint" />
            <mxPoint x="305" y="143" as="targetPoint" />
          </mxGeometry>
        </mxCell>
        <mxCell id="QsLPCnkqtUDwlWqzrG-L-16" value="" style="endArrow=none;html=1;dashed=1;startArrow=diamond;startFill=1;endFill=0;" edge="1" parent="QsLPCnkqtUDwlWqzrG-L-1" source="QsLPCnkqtUDwlWqzrG-L-2" target="QsLPCnkqtUDwlWqzrG-L-13">
          <mxGeometry width="50" height="50" relative="1" as="geometry">
            <mxPoint x="380" y="126" as="sourcePoint" />
            <mxPoint x="430" y="76" as="targetPoint" />
          </mxGeometry>
        </mxCell>
        <mxCell id="QsLPCnkqtUDwlWqzrG-L-17" value="Sujeto" style="swimlane;fontStyle=1;align=center;verticalAlign=top;childLayout=stackLayout;horizontal=1;startSize=30;horizontalStack=0;resizeParent=1;resizeParentMax=0;resizeLast=0;collapsible=1;marginBottom=0;" vertex="1" parent="QsLPCnkqtUDwlWqzrG-L-1">
          <mxGeometry x="170" y="280" width="160" height="108" as="geometry" />
        </mxCell>
        <mxCell id="QsLPCnkqtUDwlWqzrG-L-18" value="Agregar()" style="text;strokeColor=none;fillColor=none;align=center;verticalAlign=top;spacingLeft=4;spacingRight=4;overflow=hidden;rotatable=0;points=[[0,0.5],[1,0.5]];portConstraint=eastwest;" vertex="1" parent="QsLPCnkqtUDwlWqzrG-L-17">
          <mxGeometry y="30" width="160" height="26" as="geometry" />
        </mxCell>
        <mxCell id="QsLPCnkqtUDwlWqzrG-L-19" value="Quitar()" style="text;strokeColor=none;fillColor=none;align=center;verticalAlign=top;spacingLeft=4;spacingRight=4;overflow=hidden;rotatable=0;points=[[0,0.5],[1,0.5]];portConstraint=eastwest;" vertex="1" parent="QsLPCnkqtUDwlWqzrG-L-17">
          <mxGeometry y="56" width="160" height="26" as="geometry" />
        </mxCell>
        <mxCell id="QsLPCnkqtUDwlWqzrG-L-20" value="Notificar()" style="text;strokeColor=none;fillColor=none;align=center;verticalAlign=top;spacingLeft=4;spacingRight=4;overflow=hidden;rotatable=0;points=[[0,0.5],[1,0.5]];portConstraint=eastwest;" vertex="1" parent="QsLPCnkqtUDwlWqzrG-L-17">
          <mxGeometry y="82" width="160" height="26" as="geometry" />
        </mxCell>
        <mxCell id="QsLPCnkqtUDwlWqzrG-L-21" value="ProductoConcreto" style="swimlane;fontStyle=1;align=center;verticalAlign=top;childLayout=stackLayout;horizontal=1;startSize=46;horizontalStack=0;resizeParent=1;resizeParentMax=0;resizeLast=0;collapsible=1;marginBottom=0;" vertex="1" parent="QsLPCnkqtUDwlWqzrG-L-1">
          <mxGeometry x="410" y="420" width="160" height="28" as="geometry" />
        </mxCell>
        <mxCell id="QsLPCnkqtUDwlWqzrG-L-22" value="SujetoConcreto" style="swimlane;fontStyle=1;align=center;verticalAlign=top;childLayout=stackLayout;horizontal=1;startSize=56;horizontalStack=0;resizeParent=1;resizeParentMax=0;resizeLast=0;collapsible=1;marginBottom=0;" vertex="1" parent="QsLPCnkqtUDwlWqzrG-L-1">
          <mxGeometry x="170" y="420" width="160" height="30" as="geometry" />
        </mxCell>
        <mxCell id="QsLPCnkqtUDwlWqzrG-L-23" value="" style="endArrow=block;html=1;endFill=1;endSize=8;edgeStyle=orthogonalEdgeStyle;rounded=0;" edge="1" parent="QsLPCnkqtUDwlWqzrG-L-1" source="QsLPCnkqtUDwlWqzrG-L-21" target="QsLPCnkqtUDwlWqzrG-L-25">
          <mxGeometry width="50" height="50" relative="1" as="geometry">
            <mxPoint x="15" y="463" as="sourcePoint" />
            <mxPoint x="65" y="413" as="targetPoint" />
          </mxGeometry>
        </mxCell>
        <mxCell id="QsLPCnkqtUDwlWqzrG-L-24" value="" style="endArrow=none;html=1;dashed=1;startArrow=classic;startFill=1;endFill=0;" edge="1" parent="QsLPCnkqtUDwlWqzrG-L-1" source="QsLPCnkqtUDwlWqzrG-L-22" target="QsLPCnkqtUDwlWqzrG-L-21">
          <mxGeometry width="50" height="50" relative="1" as="geometry">
            <mxPoint x="140" y="396" as="sourcePoint" />
            <mxPoint x="190" y="346" as="targetPoint" />
          </mxGeometry>
        </mxCell>
        <mxCell id="QsLPCnkqtUDwlWqzrG-L-25" value="Observador" style="swimlane;fontStyle=1;align=center;verticalAlign=top;childLayout=stackLayout;horizontal=1;startSize=31;horizontalStack=0;resizeParent=1;resizeParentMax=0;resizeLast=0;collapsible=1;marginBottom=0;" vertex="1" parent="QsLPCnkqtUDwlWqzrG-L-1">
          <mxGeometry x="410" y="305.5" width="160" height="57" as="geometry" />
        </mxCell>
        <mxCell id="QsLPCnkqtUDwlWqzrG-L-26" value="Actualizar()" style="text;strokeColor=none;fillColor=none;align=center;verticalAlign=top;spacingLeft=4;spacingRight=4;overflow=hidden;rotatable=0;points=[[0,0.5],[1,0.5]];portConstraint=eastwest;" vertex="1" parent="QsLPCnkqtUDwlWqzrG-L-25">
          <mxGeometry y="31" width="160" height="26" as="geometry" />
        </mxCell>
        <mxCell id="QsLPCnkqtUDwlWqzrG-L-27" value="" style="endArrow=block;html=1;endFill=1;endSize=8;edgeStyle=orthogonalEdgeStyle;rounded=0;" edge="1" parent="QsLPCnkqtUDwlWqzrG-L-1" source="QsLPCnkqtUDwlWqzrG-L-22" target="QsLPCnkqtUDwlWqzrG-L-17">
          <mxGeometry width="50" height="50" relative="1" as="geometry">
            <mxPoint x="15" y="463" as="sourcePoint" />
            <mxPoint x="65" y="413" as="targetPoint" />
          </mxGeometry>
        </mxCell>
        <mxCell id="QsLPCnkqtUDwlWqzrG-L-28" value="" style="endArrow=none;html=1;dashed=1;startArrow=diamond;startFill=1;endFill=0;" edge="1" parent="QsLPCnkqtUDwlWqzrG-L-1" source="QsLPCnkqtUDwlWqzrG-L-17" target="QsLPCnkqtUDwlWqzrG-L-25">
          <mxGeometry width="50" height="50" relative="1" as="geometry">
            <mxPoint x="140" y="396" as="sourcePoint" />
            <mxPoint x="190" y="346" as="targetPoint" />
          </mxGeometry>
        </mxCell>
      </root>
    </mxGraphModel>
  </diagram>
</mxfile>
